# xmcd
#
# Track frame offsets:
#	150
#	17517
#	31639
#	49584
#	62534
#	78510
#	91829
#	108548
#	125722
#	141178
#
# Disc length: 2073 seconds
#
# Revision: 1
# Processed by: cddbd v1.5.2PL0 Copyright (c) Steve Scherf et al.
# Submitted via: EasyCDDAExtractor 16.0.1.1
#
DISCID=7708170a
DTITLE=Billy Walker - Larger Than Life
DYEAR=1994
DGENRE=Country
TTITLE0=Adam's Side
TTITLE1=Lay It Down, Give It Up
TTITLE2=When It Comes To You
TTITLE3=It's Just A Matter Of Love
TTITLE4=He Was Born To Die For Me
TTITLE5=Unplug The Jukebox
TTITLE6=You Were Made To Love
TTITLE7=Jesus Walks In
TTITLE8=Every Heart Needs A Chance To Shine
TTITLE9=He Thinks I'm Somebody Special
EXTD=ID3G: 2
EXTT0=
EXTT1=
EXTT2=
EXTT3=
EXTT4=
EXTT5=
EXTT6=
EXTT7=
EXTT8=
EXTT9=
PLAYORDER=
